<svg width="38" height="38" viewBox="0 0 38 38" fill="none" xmlns="http://www.w3.org/2000/svg">
<path d="M22.9042 28.9724C22.2718 27.8762 22.2718 26.5144 22.9042 25.4193C23.5365 24.3232 24.7164 23.6422 25.9811 23.6422H26.6868V13.3201C26.6868 11.3612 28.2809 9.76697 30.2399 9.76697H32.014C32.7178 9.76697 33.3739 9.97172 33.9263 10.326V5.86342C33.9263 2.62459 31.3017 0 28.0629 0H6.22621C2.98833 0 0.362793 2.62459 0.362793 5.86342V27.7001C0.362793 30.9379 2.98833 33.5635 6.22621 33.5635H25.5554L25.4773 33.4283L22.9042 28.9724ZM4.89011 5.40059C5.15105 5.13966 5.51198 4.97872 5.91005 4.97872H23.8155C24.6117 4.97872 25.2573 5.62344 25.2573 6.41957C25.2573 6.81764 25.0964 7.17762 24.8355 7.43855C24.5745 7.69949 24.2136 7.86043 23.8155 7.86043H5.91005C5.11391 7.86043 4.46824 7.21571 4.46824 6.41957C4.46824 6.02151 4.62918 5.66153 4.89011 5.40059ZM15.139 20.6815C14.878 20.9424 14.518 21.1034 14.12 21.1034H5.91005C5.11391 21.1034 4.46824 20.4586 4.46824 19.6625C4.46824 19.2644 4.62918 18.9035 4.89011 18.6426C5.15105 18.3816 5.51198 18.2207 5.91005 18.2207H14.12C14.9161 18.2207 15.5618 18.8664 15.5618 19.6625C15.5618 20.0606 15.3999 20.4205 15.139 20.6815ZM20.1177 14.06C19.8567 14.321 19.4968 14.4819 19.0987 14.4819H5.91005C5.11391 14.4819 4.46824 13.8372 4.46824 13.041C4.46824 12.643 4.62918 12.283 4.89011 12.0221C5.15105 11.7611 5.51198 11.6002 5.91005 11.6002H19.0987C19.8948 11.6002 20.5405 12.2449 20.5405 13.041C20.5405 13.4391 20.3786 13.7991 20.1177 14.06Z" fill="#32C151"/>
<path d="M37.608 27.3945C37.6032 27.3726 37.5985 27.3497 37.5918 27.3278C37.588 27.3126 37.5842 27.2983 37.5794 27.284C37.5737 27.2631 37.5671 27.2421 37.5594 27.2221C37.5547 27.2069 37.549 27.1926 37.5432 27.1783C37.5375 27.164 37.5318 27.1507 37.5261 27.1364C37.5242 27.1316 37.5223 27.1278 37.5204 27.1231C37.5118 27.105 37.5032 27.0859 37.4937 27.0678C37.4842 27.0469 37.4728 27.0259 37.4613 27.0059C37.4509 26.9859 37.4385 26.9659 37.4261 26.9469C37.3775 26.8679 37.3204 26.7945 37.2566 26.7279C37.2404 26.7107 37.2242 26.6945 37.2071 26.6783C37.1756 26.6479 37.1423 26.6193 37.108 26.5926C36.9947 26.505 36.8671 26.4336 36.7271 26.385C36.71 26.3793 36.6919 26.3726 36.6738 26.3679C36.6347 26.3555 36.5947 26.345 36.5538 26.3374C36.5328 26.3326 36.5119 26.3288 36.4909 26.326C36.4652 26.3212 36.4395 26.3184 36.4138 26.3165C36.3919 26.3136 36.37 26.3117 36.3471 26.3107C36.3224 26.3098 36.2976 26.3088 36.2729 26.3088H34.7406C34.7168 26.3088 34.6939 26.3079 34.6701 26.3069C34.6549 26.3069 34.6387 26.305 34.6234 26.3041C34.6063 26.3022 34.5892 26.3003 34.572 26.2984C34.5539 26.2965 34.5368 26.2936 34.5196 26.2907C34.5015 26.2879 34.4825 26.2841 34.4644 26.2803C34.4454 26.2765 34.4273 26.2727 34.4092 26.2679C34.3911 26.2641 34.3739 26.2593 34.3558 26.2536C34.3406 26.2488 34.3244 26.2441 34.3092 26.2384C34.292 26.2327 34.2749 26.2269 34.2578 26.2203C34.2406 26.2136 34.2235 26.2069 34.2073 26.2003C34.1063 26.1574 34.013 26.1031 33.9263 26.0393C33.9054 26.0241 33.8854 26.0079 33.8654 25.9908C33.8454 25.9746 33.8264 25.9565 33.8073 25.9393C33.7883 25.9212 33.7692 25.9032 33.7521 25.8841C33.7349 25.866 33.7187 25.8479 33.7025 25.8289C33.6835 25.807 33.6654 25.7841 33.6473 25.7613C33.633 25.7413 33.6178 25.7203 33.6045 25.6994C33.5911 25.6784 33.5778 25.6575 33.5645 25.6356C33.5511 25.6127 33.5388 25.5898 33.5264 25.5651C33.5245 25.5622 33.5226 25.5584 33.5207 25.5556C33.5111 25.5365 33.5016 25.5165 33.493 25.4965C33.4854 25.4784 33.4778 25.4622 33.4711 25.4441C33.4702 25.4422 33.4692 25.4394 33.4683 25.4375C33.4521 25.3956 33.4378 25.3527 33.4254 25.3089C33.4197 25.288 33.4149 25.2661 33.4102 25.2451C33.4054 25.2232 33.4007 25.2003 33.3969 25.1784C33.394 25.1623 33.3911 25.1451 33.3892 25.128C33.3873 25.1184 33.3864 25.1099 33.3854 25.1013V25.0984C33.3826 25.0756 33.3807 25.0527 33.3797 25.0289C33.3778 25.0023 33.3769 24.9737 33.3769 24.9461V13.1145C33.3769 12.3612 32.7674 11.7517 32.0141 11.7517H30.2399C29.4876 11.7517 28.8772 12.3612 28.8772 13.1145V24.9461C28.8772 25.6984 28.2667 26.3088 27.5144 26.3088H25.9812C24.9327 26.3088 24.2765 27.445 24.8012 28.3535L27.3744 32.8094L28.0839 34.0398L29.9466 37.2662C29.9628 37.2948 29.9809 37.3224 29.998 37.3491C30.0333 37.4024 30.0723 37.4519 30.1133 37.4976C30.1961 37.59 30.2885 37.6681 30.3875 37.7319C30.4066 37.7443 30.4247 37.7557 30.4437 37.7662C30.4628 37.7767 30.4818 37.7881 30.5018 37.7976C30.5209 37.8071 30.5409 37.8167 30.5609 37.8262C30.5809 37.8357 30.6008 37.8433 30.6208 37.8519H30.6218C30.6408 37.8595 30.6608 37.8662 30.6808 37.8738C30.6894 37.8766 30.698 37.8805 30.7066 37.8824C30.7189 37.8871 30.7313 37.89 30.7437 37.8938C30.7485 37.8947 30.7523 37.8957 30.757 37.8966C30.798 37.9081 30.8389 37.9166 30.8808 37.9243C30.8865 37.9243 30.8923 37.9262 30.898 37.9271H30.8989C30.938 37.9347 30.977 37.9385 31.0161 37.9414C31.018 37.9424 31.0208 37.9424 31.0227 37.9424C31.0475 37.9443 31.0713 37.9452 31.0961 37.9452C31.1075 37.9462 31.118 37.9452 31.1294 37.9462C31.1408 37.9452 31.1532 37.9462 31.1646 37.9462C31.1808 37.9452 31.197 37.9452 31.2132 37.9433C31.2332 37.9433 31.2532 37.9405 31.2732 37.9385C31.2932 37.9366 31.3132 37.9347 31.3332 37.9319C31.3627 37.9281 31.3913 37.9233 31.4198 37.9157C31.4275 37.9138 31.4351 37.9128 31.4437 37.9109C31.4456 37.91 31.4484 37.91 31.4503 37.909C31.4684 37.9052 31.4856 37.8995 31.5036 37.8947C31.5132 37.8928 31.5227 37.889 31.5332 37.8862C31.5389 37.8843 31.5455 37.8824 31.5522 37.8805C31.5598 37.8776 31.5684 37.8757 31.576 37.8728C31.5913 37.8671 31.6065 37.8614 31.6217 37.8557C31.6341 37.8509 31.6465 37.8462 31.6589 37.8405C31.676 37.8338 31.6922 37.8271 31.7084 37.8195C31.7122 37.8176 31.717 37.8157 31.7208 37.8128C31.7236 37.8119 31.7265 37.81 31.7293 37.809C31.7455 37.8014 31.7617 37.7928 31.7779 37.7843C31.7789 37.7833 31.7798 37.7833 31.7808 37.7824C31.7989 37.7728 31.817 37.7624 31.8341 37.7519C31.8379 37.75 31.8408 37.7471 31.8446 37.7452C31.857 37.7386 31.8684 37.7309 31.8808 37.7224C31.9008 37.71 31.9198 37.6957 31.9389 37.6814C31.9627 37.6643 31.9865 37.6452 32.0093 37.6252C32.0322 37.6062 32.055 37.5862 32.0769 37.5643C32.0969 37.5443 32.1179 37.5224 32.1369 37.5005C32.1493 37.4871 32.1617 37.4729 32.1731 37.4586C32.176 37.4548 32.1788 37.4519 32.1807 37.4481C32.1931 37.4348 32.2036 37.4205 32.215 37.4062C32.2188 37.4005 32.2236 37.3948 32.2274 37.3881C32.2398 37.3729 32.2503 37.3567 32.2617 37.3395C32.2779 37.3157 32.2931 37.291 32.3074 37.2662L34.8806 32.8094L37.4537 28.3535C37.4594 28.343 37.4652 28.3325 37.4709 28.322C37.4804 28.3039 37.489 28.2878 37.4975 28.2706C37.508 28.2497 37.5175 28.2287 37.5261 28.2078C37.5356 28.1868 37.5442 28.1659 37.5518 28.144C37.5594 28.123 37.5671 28.1021 37.5737 28.0811C37.5804 28.0592 37.5871 28.0382 37.5928 28.0173C37.6004 27.9887 37.6071 27.9592 37.6128 27.9306C37.6242 27.8735 37.6309 27.8164 37.6347 27.7602C37.6423 27.6364 37.6337 27.5135 37.608 27.3945Z" fill="#32C151"/>
</svg>
