<svg width="38" height="38" viewBox="0 0 38 38" fill="none" xmlns="http://www.w3.org/2000/svg">
<path d="M22.904 24.2469C22.2707 23.1508 22.2707 21.789 22.904 20.6928L25.4762 16.237L28.0494 11.7801C28.6817 10.6849 29.8617 10.004 31.1263 10.004C32.2253 10.004 33.2586 10.5173 33.9262 11.3697V6.10048C33.9262 2.86165 31.3016 0.237061 28.0627 0.237061H6.22609C2.98821 0.237061 0.362671 2.86165 0.362671 6.10048V27.9371C0.362671 31.175 2.98821 33.8005 6.22609 33.8005H26.6866V26.023H25.981C24.7153 26.023 23.5364 25.3421 22.904 24.2469ZM4.88999 5.63765C5.15092 5.37672 5.51185 5.21578 5.90897 5.21578H23.8154C24.6115 5.21578 25.2563 5.8605 25.2563 6.65663C25.2563 7.0547 25.0953 7.41563 24.8344 7.67657C24.5734 7.9375 24.2135 8.09844 23.8154 8.09844H5.90897C5.11378 8.09844 4.46811 7.45277 4.46811 6.65663C4.46811 6.25857 4.63001 5.89859 4.88999 5.63765ZM15.1388 20.9185C14.8779 21.1795 14.5179 21.3404 14.1199 21.3404H5.90897C5.11378 21.3404 4.46811 20.6957 4.46811 19.8996C4.46811 19.5015 4.63001 19.1415 4.88999 18.8806C5.15092 18.6197 5.51185 18.4587 5.90897 18.4587H14.1199C14.916 18.4587 15.5607 19.1034 15.5607 19.8996C15.5607 20.2976 15.3998 20.6576 15.1388 20.9185ZM20.1176 14.2971C19.8566 14.558 19.4966 14.719 19.0986 14.719H5.90897C5.11378 14.719 4.46811 14.0742 4.46811 13.2781C4.46811 12.88 4.63001 12.5201 4.88999 12.2591C5.15092 11.9982 5.51185 11.8372 5.90897 11.8372H19.0986C19.8947 11.8372 20.5394 12.482 20.5394 13.2781C20.5394 13.6762 20.3785 14.0361 20.1176 14.2971Z" fill="#1375FA"/>
<path d="M37.4527 21.788L34.8804 17.3321L33.9262 15.6789L32.3073 12.8752C32.2911 12.8467 32.274 12.8191 32.2559 12.7924C32.2206 12.7391 32.1816 12.6895 32.1406 12.6438C32.0168 12.5057 31.8702 12.3991 31.7121 12.3248C31.6597 12.2991 31.6064 12.2781 31.5521 12.261C31.414 12.2162 31.2702 12.1943 31.1264 12.1943C30.7826 12.1943 30.4379 12.3219 30.177 12.5772C30.1331 12.62 30.0922 12.6657 30.0541 12.7153C30.0151 12.7648 29.9789 12.8181 29.9465 12.8752L27.3733 17.3321L24.8011 21.788C24.2764 22.6974 24.9316 23.8326 25.981 23.8326H27.5133C28.2666 23.8326 28.877 24.443 28.877 25.1954V36.3451C28.877 37.0984 29.4865 37.7088 30.2398 37.7088H32.014C32.7663 37.7088 33.3767 37.0984 33.3767 36.3451V25.1954C33.3767 24.7478 33.5929 24.3507 33.9262 24.1021C34.1529 23.9326 34.4348 23.8326 34.7395 23.8326H36.2727C37.3222 23.8326 37.9774 22.6974 37.4527 21.788Z" fill="#1375FA"/>
</svg>
